<svg width="16" height="16" viewBox="0 0 16 16" fill="none" xmlns="http://www.w3.org/2000/svg">
<path fill-rule="evenodd" clip-rule="evenodd" d="M4.70164 0.048C5.55473 0.00872726 5.82673 0 7.99982 0C10.1729 0 10.4449 0.00945454 11.2973 0.048C12.1496 0.0865454 12.7315 0.222545 13.2405 0.419636C13.7736 0.621091 14.2573 0.936 14.6573 1.34327C15.0645 1.74255 15.3787 2.22545 15.5795 2.75927C15.7773 3.26836 15.9125 3.85018 15.9518 4.70109C15.9911 5.55564 15.9998 5.82764 15.9998 8C15.9998 10.1731 15.9904 10.4451 15.9518 11.2982C15.9133 12.1491 15.7773 12.7309 15.5795 13.24C15.3787 13.7739 15.064 14.2576 14.6573 14.6575C14.2573 15.0647 13.7736 15.3789 13.2405 15.5796C12.7315 15.7775 12.1496 15.9127 11.2987 15.952C10.4449 15.9913 10.1729 16 7.99982 16C5.82673 16 5.55473 15.9905 4.70164 15.952C3.85073 15.9135 3.26891 15.7775 2.75982 15.5796C2.22594 15.3789 1.74223 15.0642 1.34236 14.6575C0.935366 14.2579 0.620409 13.7745 0.419453 13.2407C0.222362 12.7316 0.0870896 12.1498 0.0478169 11.2989C0.00854416 10.4444 -0.000183105 10.1724 -0.000183105 8C-0.000183105 5.82691 0.00927143 5.55491 0.0478169 4.70255C0.0863623 3.85018 0.222362 3.26836 0.419453 2.75927C0.620706 2.22551 0.935903 1.74205 1.34309 1.34255C1.74239 0.935637 2.22561 0.620686 2.75909 0.419636C3.26818 0.222545 3.85 0.0872727 4.70091 0.048H4.70164ZM11.2325 1.488C10.3889 1.44945 10.1358 1.44145 7.99982 1.44145C5.86382 1.44145 5.61073 1.44945 4.76709 1.488C3.98673 1.52364 3.56345 1.65382 3.28127 1.76364C2.90818 1.90909 2.64127 2.08145 2.36127 2.36145C2.09585 2.61967 1.89158 2.93402 1.76345 3.28145C1.65364 3.56364 1.52345 3.98691 1.48782 4.76727C1.44927 5.61091 1.44127 5.864 1.44127 8C1.44127 10.136 1.44927 10.3891 1.48782 11.2327C1.52345 12.0131 1.65364 12.4364 1.76345 12.7185C1.89145 13.0655 2.09582 13.3804 2.36127 13.6385C2.61945 13.904 2.93436 14.1084 3.28127 14.2364C3.56345 14.3462 3.98673 14.4764 4.76709 14.512C5.61073 14.5505 5.86309 14.5585 7.99982 14.5585C10.1365 14.5585 10.3889 14.5505 11.2325 14.512C12.0129 14.4764 12.4362 14.3462 12.7184 14.2364C13.0915 14.0909 13.3584 13.9185 13.6384 13.6385C13.9038 13.3804 14.1082 13.0655 14.2362 12.7185C14.346 12.4364 14.4762 12.0131 14.5118 11.2327C14.5504 10.3891 14.5584 10.136 14.5584 8C14.5584 5.864 14.5504 5.61091 14.5118 4.76727C14.4762 3.98691 14.346 3.56364 14.2362 3.28145C14.0907 2.90836 13.9184 2.64145 13.6384 2.36145C13.3801 2.09605 13.0658 1.89179 12.7184 1.76364C12.4362 1.65382 12.0129 1.52364 11.2325 1.488ZM6.978 10.4662C7.54866 10.7037 8.18409 10.7358 8.77577 10.5569C9.36744 10.378 9.87865 9.99921 10.2221 9.48527C10.5655 8.97132 10.7199 8.35409 10.6588 7.73899C10.5977 7.12388 10.3249 6.54907 9.88709 6.11273C9.60799 5.8338 9.27052 5.62023 8.89897 5.48738C8.52742 5.35453 8.13104 5.30572 7.73836 5.34445C7.34568 5.38318 6.96647 5.50849 6.62804 5.71137C6.2896 5.91424 6.00036 6.18963 5.78113 6.51771C5.5619 6.84579 5.41814 7.21839 5.36019 7.6087C5.30225 7.99901 5.33156 8.3973 5.44603 8.77492C5.56049 9.15254 5.75726 9.50008 6.02216 9.79253C6.28706 10.085 6.61351 10.315 6.978 10.4662ZM5.09218 5.09236C5.47402 4.71053 5.92732 4.40764 6.42622 4.20099C6.92511 3.99434 7.45982 3.88798 7.99982 3.88798C8.53981 3.88798 9.07453 3.99434 9.57342 4.20099C10.0723 4.40764 10.5256 4.71053 10.9075 5.09236C11.2893 5.4742 11.5922 5.92751 11.7988 6.4264C12.0055 6.92529 12.1118 7.46 12.1118 8C12.1118 8.54 12.0055 9.07471 11.7988 9.5736C11.5922 10.0725 11.2893 10.5258 10.9075 10.9076C10.1363 11.6788 9.09039 12.112 7.99982 12.112C6.90924 12.112 5.86333 11.6788 5.09218 10.9076C4.32103 10.1365 3.8878 9.09058 3.8878 8C3.8878 6.90942 4.32103 5.86352 5.09218 5.09236ZM13.0238 4.50036C13.1184 4.41111 13.1942 4.30377 13.2466 4.18471C13.299 4.06565 13.327 3.93729 13.3288 3.80722C13.3307 3.67716 13.3065 3.54803 13.2576 3.4275C13.2087 3.30696 13.1361 3.19746 13.0442 3.10548C12.9522 3.0135 12.8427 2.94091 12.7221 2.89201C12.6016 2.84311 12.4725 2.81889 12.3424 2.82079C12.2123 2.82268 12.084 2.85066 11.9649 2.90305C11.8459 2.95545 11.7385 3.0312 11.6493 3.12582C11.4757 3.30984 11.3806 3.55427 11.3843 3.80722C11.388 4.06017 11.4901 4.30173 11.669 4.48061C11.8479 4.6595 12.0895 4.76162 12.3424 4.76531C12.5954 4.769 12.8398 4.67396 13.0238 4.50036Z" fill="#4c5ba4"/>
</svg>
