<svg xmlns="http://www.w3.org/2000/svg" viewBox="0 0 713.16 140.27"><defs><style>.cls-1{fill:#4c5ba4;}.cls-2{fill:#6f6f6f;}.cls-3{fill:#49579a;}</style></defs><title>Ресурс 1</title><g id="Слой_2" data-name="Слой 2"><g id="레이어_1" data-name="레이어 1"><path class="cls-1" d="M273.16,53.14,268,58.89a7,7,0,0,0-.93-1.19l-11-11a6.5,6.5,0,0,0-11.1,4.6,7,7,0,0,0,.07.92,7,7,0,0,0-.92-.07,6.5,6.5,0,0,0-6.51,6.5,7.14,7.14,0,0,0,.07.93,6.44,6.44,0,0,0-6.39,2.92l0,0a6.48,6.48,0,0,0-4.61-1.91,7.12,7.12,0,0,0-.92.07,5.62,5.62,0,0,0,.07-.92,6.51,6.51,0,0,0-11.1-4.6L204.48,65.44,190.9,50.23A26.9,26.9,0,0,1,231,14.33l-7.71,8.37a6.51,6.51,0,1,0,9.2,9.2l9.73-9.73Z"/><path class="cls-1" d="M221.51,57.62a3,3,0,0,0-4.3,0L206.8,68l-.55.55a3,3,0,0,0,0,4.29,3.1,3.1,0,0,0,4.29,0l.31-.31L221.5,61.91a3,3,0,0,0,0-4.29Z"/><path class="cls-1" d="M228.86,65a3,3,0,0,0-4.29,0L213.74,75.8l-.14.14a3,3,0,0,0-.89,2.14,3.05,3.05,0,0,0,.89,2.15,3.11,3.11,0,0,0,4.18.09l.12-.09,11-11a3,3,0,0,0,.89-2.14A3.05,3.05,0,0,0,228.86,65Z"/><path class="cls-1" d="M233.16,71.59a3.09,3.09,0,0,0-1.24.74l-11,11a3.61,3.61,0,0,0-.25.3,3,3,0,0,0,4,4.44,2.82,2.82,0,0,0,.58-.45l11-11a3.05,3.05,0,0,0,.74-1.23Z"/><path class="cls-1" d="M243.18,81.61,240.51,79a3,3,0,0,0-1.23.73l-11,11a3.21,3.21,0,0,0-.57.81,3,3,0,0,0,.57,3.48,3.13,3.13,0,0,0,3.15.69,3.08,3.08,0,0,0,1.15-.69l11-11a3,3,0,0,0,.79-1.42A6.17,6.17,0,0,1,243.18,81.61Z"/><path class="cls-1" d="M265.47,61.75a3,3,0,0,0-.84-1.59l-11-11a3,3,0,0,0-4.29,4.3l11,11a3,3,0,0,0,5.13-2.7Z"/><path class="cls-1" d="M257.28,67.51l-11-11A3,3,0,1,0,242,60.84l11,11a3,3,0,0,0,2.79.79,2.89,2.89,0,0,0,1.5-.79,3,3,0,0,0,.86-1.85,2.85,2.85,0,0,0,0-.29A3,3,0,0,0,257.28,67.51Z"/><path class="cls-1" d="M250.05,79a1.83,1.83,0,0,1-.13.16l0,0Z"/><path class="cls-1" d="M249.92,74.87l-11-11A3,3,0,0,0,234.5,68c.06.07.1.14.17.21l5.89,5.88,1.26,1.26,3.81,3.82a3.12,3.12,0,0,0,4.25,0l.17-.19A3,3,0,0,0,249.92,74.87Z"/><path class="cls-1" d="M236.3,13.69c-.22.23-.44.45-.65.69L233.33,17l0-.05,3-3.26Z"/><path class="cls-1" d="M273.63,12.25a26.9,26.9,0,0,0-37.33,1.44c-.22.23-.44.45-.65.69L233.33,17l0-.05-7.54,8.17a3.1,3.1,0,0,0-.94,2.2,3.05,3.05,0,0,0,.89,2.15,3.1,3.1,0,0,0,4.29,0l11-11,.07-.05a1.79,1.79,0,0,1,2.38.05l32.07,32.07.28-.32A26.89,26.89,0,0,0,273.63,12.25Z"/><path class="cls-2" d="M458.19,111.83h12.06c3.05,0,5.41.73,7.11,2.21a7.64,7.64,0,0,1,2.53,6.06,5.4,5.4,0,0,1-.92,3,4.57,4.57,0,0,1-2.31,2,6.48,6.48,0,0,1,3.25,2.37,6.19,6.19,0,0,1,1.28,3.76,8.29,8.29,0,0,1-1.18,4.47,7.6,7.6,0,0,1-3.42,2.93,12.77,12.77,0,0,1-5.31,1H458.19ZM470,123.07a4.32,4.32,0,0,0,2.74-.77,2.62,2.62,0,0,0,1-2.2,2.67,2.67,0,0,0-1-2.23,4.32,4.32,0,0,0-2.74-.76h-5.59v6Zm1,11.24a4.64,4.64,0,0,0,2.93-.82,3.06,3.06,0,0,0,0-4.63A4.64,4.64,0,0,0,471,128h-6.61v6.27Z"/><path class="cls-2" d="M484.83,111.83h20.64v5.38H491v5.65h13.25v5.39H491v6h14.75v5.38H484.83Z"/><path class="cls-2" d="M526.29,112.3a10.13,10.13,0,0,1,4,3.22,8.7,8.7,0,0,1,1.61,4.69h-6.4a4.28,4.28,0,0,0-1.6-2.87,5.68,5.68,0,0,0-3.54-1,6.12,6.12,0,0,0-3.31.77,2.36,2.36,0,0,0-1.19,2.06,2.1,2.1,0,0,0,.75,1.67,6.62,6.62,0,0,0,2.3,1.14c1,.33,2.54.7,4.51,1.11,3.07.63,5.26,1.68,6.59,3.15a7.87,7.87,0,0,1,2,5.5,7.25,7.25,0,0,1-1.49,4.53,9.36,9.36,0,0,1-4,3,16.28,16.28,0,0,1-11.81-.14,10.22,10.22,0,0,1-4.29-3.35,9.26,9.26,0,0,1-1.72-5.11H515a4.59,4.59,0,0,0,1.93,3.22,7,7,0,0,0,4.27,1.21,5.52,5.52,0,0,0,3.15-.85,2.6,2.6,0,0,0,1.25-2.22,2.55,2.55,0,0,0-.67-1.8,5.2,5.2,0,0,0-2.11-1.23,28.33,28.33,0,0,0-4-1,14.37,14.37,0,0,1-7-3,7.49,7.49,0,0,1-2.32-5.86,6.51,6.51,0,0,1,1.49-4.26,9.32,9.32,0,0,1,4-2.77,16,16,0,0,1,5.73-1A13,13,0,0,1,526.29,112.3Z"/><path class="cls-2" d="M557.93,117.31h-9v22.28h-6.2V117.31h-9v-5.48h24.25Z"/><path class="cls-2" d="M570.81,111.83h20.37v5.45H577v6.3h12.6V129H577v10.63h-6.2Z"/><path class="cls-2" d="M611.1,139.59l-5.38-8.76h-4.94v8.76h-6.2V111.83h11.18a14.13,14.13,0,0,1,6,1.17,8.73,8.73,0,0,1,3.85,3.32,10.13,10.13,0,0,1,0,10,8.62,8.62,0,0,1-3.77,3.29l6.44,10Zm-10.32-14.24h4.7a6.34,6.34,0,0,0,3.87-1,3.91,3.91,0,0,0,0-6,6.34,6.34,0,0,0-3.87-1h-4.7Z"/><path class="cls-2" d="M627.35,111.83v27.76h-6.2V111.83Z"/><path class="cls-2" d="M632.26,111.83H652.9v5.38H638.46v5.65h13.25v5.39H638.46v6h14.75v5.38h-21Z"/><path class="cls-2" d="M657.36,111.83h5.18l13.86,16.69v-17h6.2v27.76h-5.18l-13.86-16.69v17h-6.2Z"/><path class="cls-2" d="M687.51,111.83h10.76a16.86,16.86,0,0,1,7.9,1.75,12.41,12.41,0,0,1,5.18,4.91,15.37,15.37,0,0,1,0,14.47,12.31,12.31,0,0,1-5.18,4.89,17,17,0,0,1-7.9,1.74H687.51Zm10.86,22.27a8.72,8.72,0,0,0,6.3-2.19,9.51,9.51,0,0,0,0-12.38,8.65,8.65,0,0,0-6.3-2.22h-4.66V134.1Z"/><polygon class="cls-1" points="356.21 60.41 310.59 5.48 293.55 5.48 293.55 96.84 313.95 96.84 313.95 40.79 359.57 95.72 376.61 95.72 376.61 4.36 356.21 4.36 356.21 60.41"/><polygon class="cls-1" points="474.23 64 458.62 4.36 437.39 4.36 421.66 64.22 405.94 4.36 384.04 4.36 410.43 95.9 431.1 95.9 447.5 38.5 463.9 95.9 484.56 95.9 510.96 4.36 490.07 4.36 474.23 64"/><path class="cls-1" d="M559.8,51.21c-.06.3-.13.6-.2.89.11-.41.21-.82.29-1.23s.16-.76.26-1.14C560,50.22,559.9,50.71,559.8,51.21Z"/><path class="cls-1" d="M602.73,23.8a48.29,48.29,0,0,0-87.51,17.36c-.05.25-.09.5-.13.75-.11.57-.2,1.14-.31,1.77s-.14,1.23-.21,1.91c0,.36,0,.71-.05,1.07a48.29,48.29,0,0,0,38.7,51,49.8,49.8,0,0,0,9.65,1A47.91,47.91,0,0,0,609,64c.17-.57.35-1.16.51-1.76l0-.14c.12-.52.24-1.06.35-1.59l0-.25c0-.06,0-.12,0-.18A48,48,0,0,0,602.73,23.8ZM519.8,45.6c0-.4.09-.79.13-1.14.09-.53.18-1.08.29-1.63l0-.22c0-.14,0-.28.08-.43A43.11,43.11,0,0,1,562.5,7.52a43.82,43.82,0,0,1,8.5.84,43.19,43.19,0,0,1,33.19,31.05,25.39,25.39,0,0,0-44,10.22.36.36,0,0,0,0,.1c-.1.38-.18.76-.26,1.14s-.18.82-.29,1.23c-.06.24-.12.48-.2.72a20.24,20.24,0,0,1-39.55-7.22Zm84.87,14.12c-.08.39-.17.78-.25,1.15-.14.53-.3,1.07-.46,1.6a42.8,42.8,0,0,1-49.72,30A43.3,43.3,0,0,1,522.56,65.8,25.41,25.41,0,0,0,535,72.2a25,25,0,0,0,5,.5,25.49,25.49,0,0,0,24.73-19.51c.08-.32.15-.64.22-1s.15-.73.25-1.08.14-.58.23-.87a20.24,20.24,0,0,1,39.28,9.45Z"/><path class="cls-3" d="M167.85.94a2,2,0,0,0-1.7-.94h-39.1a2,2,0,0,0-1.75,1c-1.4,2.52-1.84,11.34-1.84,12.08,0,2.16,2.46,2.8,5.68,3.41,1.84.35,4,.65,5.89.89-1.61,5.81-3.39,11.14-5.11,16.29l-7.34,21.44,0,.1-4.71,16.69c-2-6.48-4.1-12.71-5.57-17l-7.35-20.84c-2-5.65-3.75-11-5.63-16.95,2.16-.34,4.4-.74,6.31-1.11,4.36-.85,6-1.17,6-3.1,0-6.51-.37-10.15-1.21-11.81A2,2,0,0,0,108.59,0H62.75A2,2,0,0,0,61,1c-1.34,2.4-1.61,11.76.37,14.3a2,2,0,0,0,1.08.71l7.69,2c.76.22,1.37.4,2.56,2.6l.09.16a12.07,12.07,0,0,1,.75,1.58c-1,3.41-2.16,7.37-3.56,11.35L62.64,55.14l0,.1L57.9,71.93c-2-6.48-4.1-12.71-5.57-17L45.19,34.5,45,33.79c-2.13-6.22-4-11.7-5.59-16.79,2-.28,4.28-.63,6.29-1,4.24-.79,6-1.12,6-3.08,0-6.51-.37-10.15-1.21-11.82A2,2,0,0,0,48.65,0H2.81A2,2,0,0,0,1.06,1c-1.34,2.4-1.61,11.76.37,14.3A2,2,0,0,0,2.5,16L10,18c.83.24,1.61.46,2.77,2.62,1.91,3.44,5.87,14,7.21,17.78L43.8,103.9a2,2,0,0,0,1.88,1.32H63.14A2,2,0,0,0,65,103.93L84.74,51.8l19,52.11a2,2,0,0,0,1.88,1.31h17.46a2,2,0,0,0,1.87-1.29l25.21-66.49c1.49-3.92,5-13.83,6.6-18.62,2.45-.5,7.53-1.64,10-3a1.88,1.88,0,0,0,.64-.55C169.13,12.94,169.2,3.11,167.85.94Z"/><path class="cls-1" d="M664.8,2.27A48.17,48.17,0,1,0,713,50.43,48.22,48.22,0,0,0,664.8,2.27Zm32.1,19.61A43,43,0,0,1,705,35.31a68.59,68.59,0,0,0-17,4A91.9,91.9,0,0,0,672.21,26.8a65.26,65.26,0,0,1,24.67-4.92Zm-14,19.59a77.74,77.74,0,0,0-18.1,11.89A77.39,77.39,0,0,0,648.37,42.3a83,83,0,0,1,18.09-12.85A83,83,0,0,1,682.86,41.47Zm-18.06-34a42.67,42.67,0,0,1,26.88,9.49,71,71,0,0,0-25.41,6.54,72.05,72.05,0,0,0-27-7.6A42.76,42.76,0,0,1,664.8,7.45ZM633.67,20.86a66.76,66.76,0,0,1,26.8,5.62,87,87,0,0,0-17.56,13.36,68.87,68.87,0,0,0-18.33-4.53A42.91,42.91,0,0,1,633.67,20.86ZM621.83,50.43A42.32,42.32,0,0,1,623,40.36,64.28,64.28,0,0,1,639,43.91a111.67,111.67,0,0,0-14.84,20.35A42.2,42.2,0,0,1,621.83,50.43Zm4.93,19.94A107.55,107.55,0,0,1,644.4,46.16a71.56,71.56,0,0,1,16.54,10.75,104.26,104.26,0,0,0-20.55,28.86A43,43,0,0,1,626.76,70.37Zm38,23a42.5,42.5,0,0,1-19.94-4.93,98,98,0,0,1,19.9-28.09,98.08,98.08,0,0,1,19.93,28.12A42.58,42.58,0,0,1,664.8,93.41Zm24.34-7.6a103.57,103.57,0,0,0-20.55-28.9,71.7,71.7,0,0,1,18.25-11.54,107.54,107.54,0,0,1,16.88,23.26A43,43,0,0,1,689.14,85.81ZM692,43.39a64.45,64.45,0,0,1,14.51-3,41.33,41.33,0,0,1,1.22,10.07,42.68,42.68,0,0,1-1.67,11.82A115.37,115.37,0,0,0,692,43.39Z"/></g></g></svg>