<?xml version="1.0" encoding="iso-8859-1"?>
<!-- Uploaded to: SVG Repo, www.svgrepo.com, Generator: SVG Repo Mixer Tools -->
<!DOCTYPE svg PUBLIC "-//W3C//DTD SVG 1.1//EN" "http://www.w3.org/Graphics/SVG/1.1/DTD/svg11.dtd">
<svg fill="#000000" height="800px" width="800px" version="1.1" id="Capa_1" xmlns="http://www.w3.org/2000/svg" xmlns:xlink="http://www.w3.org/1999/xlink" 
	 viewBox="0 0 456.25 456.25" xml:space="preserve">
<g>
	<path d="M343.338,316.185c-4.418,0-8,3.582-8,8c0,4.241-3.448,7.691-7.687,7.691c-4.241,0-7.691-3.45-7.691-7.691
		c0-4.24,3.45-7.689,7.691-7.689c4.418,0,8-3.582,8-8s-3.582-8-8-8c-13.063,0-23.691,10.627-23.691,23.689
		c0,13.063,10.628,23.691,23.691,23.691c13.061,0,23.687-10.628,23.687-23.691C351.338,319.766,347.756,316.185,343.338,316.185z"/>
	<path d="M95.492,316.185c-4.418,0-8,3.582-8,8c0,4.241-3.448,7.691-7.688,7.691c-4.24,0-7.69-3.45-7.69-7.691
		c0-4.24,3.45-7.689,7.69-7.689c4.418,0,8-3.582,8-8s-3.582-8-8-8c-13.063,0-23.69,10.627-23.69,23.689
		c0,13.063,10.628,23.691,23.69,23.691c13.062,0,23.688-10.628,23.688-23.691C103.492,319.766,99.91,316.185,95.492,316.185z"/>
	<path d="M256.5,292.624H153c-4.418,0-8,3.582-8,8s3.582,8,8,8h103.5c4.418,0,8-3.582,8-8S260.918,292.624,256.5,292.624z"/>
	<path d="M454.27,242.63c0.222-0.254,0.43-0.515,0.614-0.788c0.006-0.009,0.013-0.018,0.02-0.027
		c0.201-0.301,0.374-0.613,0.53-0.932c0.028-0.058,0.054-0.116,0.081-0.175c0.141-0.308,0.266-0.621,0.366-0.942
		c0.007-0.02,0.015-0.04,0.021-0.06c0.103-0.339,0.178-0.685,0.235-1.032c0.012-0.076,0.022-0.152,0.033-0.229
		c0.048-0.358,0.081-0.717,0.08-1.077v-56.495c0-17.645-14.355-32-32-32h-20.519l-38.347-38.346
		c1.515-3.151,2.366-6.68,2.366-10.404c0-13.28-10.804-24.083-24.083-24.083c-5.476,0-10.528,1.84-14.578,4.93
		c-0.141,0.104-0.279,0.211-0.414,0.326c-1.218,0.972-2.34,2.058-3.349,3.245l-78.674,77.216l-7.549-24.385
		c-0.034-0.11-0.07-0.219-0.109-0.327c-6.033-16.881-21.258-28.671-37.023-28.671H80.188c-17.645,0-32,14.355-32,32v39.75H32
		c-17.645,0-32,14.355-32,32v48c0,17.645,14.355,32,32,32h1.904c-6.369,9.09-10.122,20.142-10.122,32.059
		c0,30.894,25.134,56.027,56.027,56.027c25.168,0,46.508-16.691,53.548-39.586h140.736c7.042,22.895,28.387,39.586,53.562,39.586
		c30.887,0,56.015-25.134,56.015-56.027c0-15.182-6.079-28.965-15.92-39.064v-40.494c0-17.645-14.355-32-32-32h-40.857
		l61.333-88.625l24.876,24.875H368c-3.233,0-6.149,1.946-7.389,4.933s-0.56,6.425,1.723,8.715l74.611,74.843l-10.019,10.019
		c-3.124,3.124-3.124,8.189,0,11.313c1.563,1.563,3.609,2.343,5.657,2.343c2.047,0,4.095-0.781,5.657-2.343l15.667-15.667
		c0.063-0.063,0.117-0.132,0.178-0.197C454.148,242.766,454.209,242.699,454.27,242.63z M351.75,100.124
		c0,4.457-3.626,8.083-8.083,8.083c-4.458,0-8.084-3.626-8.084-8.083c0-1.793,0.594-3.447,1.587-4.789l1.843-1.809
		c1.317-0.932,2.921-1.485,4.654-1.485C348.124,92.04,351.75,95.667,351.75,100.124z M225.701,148.186l19.947,64.438H128v-64.438
		H225.701z M79.81,364.21c-22.071,0-40.027-17.956-40.027-40.027c0-22.067,17.956-40.021,40.027-40.021
		c22.063,0,40.014,17.953,40.014,40.021C119.823,346.254,101.873,364.21,79.81,364.21z M327.655,364.21
		c-22.071,0-40.027-17.956-40.027-40.027c0-22.067,17.956-40.021,40.027-40.021c22.064,0,40.015,17.953,40.015,40.021
		C367.67,346.254,349.72,364.21,327.655,364.21z M349.585,236.624h-13.168c-4.418,0-8,3.582-8,8s3.582,8,8,8h15.333v20.995
		c-7.303-3.495-15.473-5.457-24.095-5.457c-30.894,0-56.027,25.131-56.027,56.021c0,0.148,0.01,0.294,0.011,0.441H135.812
		c0.001-0.148,0.011-0.293,0.011-0.441c0-30.89-25.128-56.021-56.014-56.021c-10.505,0-20.341,2.912-28.752,7.962H32
		c-8.822,0-16-7.178-16-16v-48c0-8.822,7.178-16,16-16h24.188c4.418,0,8-3.582,8-8v-47.75c0-8.823,7.178-16,16-16H201.97
		c5.639,0,11.374,2.997,15.79,7.813h-94.777c-6.056,0-10.982,4.927-10.982,10.982v77.456c0,4.418,3.582,8,8,8h136.445
		c0.029,0,0.057,0,0.086,0h23.077c0.004,0,0.009,0.001,0.013,0.001c0.005,0,0.011-0.001,0.017-0.001h56.112
		C341.656,228.624,346.813,231.849,349.585,236.624z M262.398,212.624l-10.424-33.673l69.895-68.599
		c2.961,6.285,8.561,11.087,15.364,12.976l-61.798,89.296H262.398z M424.25,164.874c8.822,0,16,7.178,16,16v37.144l-52.979-53.144
		H424.25z"/>
</g>
</svg>