<?xml version="1.0" encoding="iso-8859-1"?>
<!-- Uploaded to: SVG Repo, www.svgrepo.com, Generator: SVG Repo Mixer Tools -->
<!DOCTYPE svg PUBLIC "-//W3C//DTD SVG 1.1//EN" "http://www.w3.org/Graphics/SVG/1.1/DTD/svg11.dtd">
<svg fill="#000000" height="800px" width="800px" version="1.1" id="Capa_1" xmlns="http://www.w3.org/2000/svg" xmlns:xlink="http://www.w3.org/1999/xlink" 
	 viewBox="0 0 448 448" xml:space="preserve">
<g>
	<path d="M447.939,190.699c0.195-1.673-0.126-3.421-1.049-4.984l-30.671-51.967c-10.519-17.551-20.446-27.8-40.312-29.533
		c-0.651-0.171-1.336-0.263-2.042-0.263H24c-13.233,0-24,10.766-24,24v134.056c0,21.674,18.169,32.064,32.056,35.774
		c0.932,25.667,22.09,46.264,47.981,46.264c23.749,0,43.514-17.339,47.336-40.023h193.688c3.823,22.684,23.592,40.023,47.346,40.023
		c23.749,0,43.514-17.339,47.336-40.023H440c4.418,0,8-3.582,8-8V191.648C448,191.326,447.976,191.011,447.939,190.699z
		 M416.423,216.369c0-4.411,3.589-8,8-8H432v15.75h-15.577V216.369z M427.317,184.032H359.17l-19.897-39.829h64.538L427.317,184.032
		z M16,200.032h8.583v24.086H16V200.032z M16,184.032v-39.966h263.375c8.83,0,14.119,3.118,17.669,10.389l14.266,29.577H16z
		 M80.037,328.047c-17.659,0-32.025-14.367-32.025-32.026c0-17.656,14.366-32.021,32.025-32.021
		c17.653,0,32.016,14.365,32.016,32.021C112.053,313.68,97.69,328.047,80.037,328.047z M368.407,328.047
		c-17.659,0-32.025-14.367-32.025-32.026c0-17.656,14.366-32.021,32.025-32.021c17.653,0,32.016,14.365,32.016,32.021
		C400.423,313.68,386.061,328.047,368.407,328.047z M415.744,288.024C411.925,265.34,392.158,248,368.407,248
		c-23.756,0-43.526,17.34-47.347,40.024H127.374C123.554,265.34,103.788,248,80.037,248c-21.502,0-39.748,14.203-45.85,33.719
		C26.708,279.394,16,273.979,16,262.009v-21.89h8.583c8.822,0,16-7.177,16-16v-24.086h283.282c4.418,0,8-3.582,8-8v-0.384
		c0-1.203-0.271-2.392-0.794-3.476l-19.633-40.703c-6.286-12.875-17.073-19.404-32.063-19.404H16v-0.113c0-4.411,3.589-8,8-8
		h345.574c10.675,0,17.16,2.351,22.975,8.25h-66.216c-2.772,0-5.347,1.435-6.805,3.793c-1.458,2.357-1.591,5.302-0.352,7.782
		l27.111,54.271c0.895,3.442,4.022,5.983,7.744,5.983h52.832c-3.992,4.288-6.441,10.03-6.441,16.337v15.75c0,4.418,3.582,8,8,8H432
		v47.905H415.744z"/>
	<path d="M368.402,224.118H73c-4.418,0-8,3.582-8,8s3.582,8,8,8h295.402c4.418,0,8-3.582,8-8S372.82,224.118,368.402,224.118z"/>
	<path d="M95.721,288.022c-4.418,0-8,3.582-8,8c0,4.241-3.448,7.691-7.687,7.691c-4.241,0-7.691-3.45-7.691-7.691
		c0-4.239,3.45-7.688,7.691-7.688c4.418,0,8-3.582,8-8c0-4.418-3.582-8-8-8c-13.063,0-23.691,10.626-23.691,23.688
		c0,13.063,10.628,23.691,23.691,23.691c13.061,0,23.687-10.628,23.687-23.691C103.721,291.604,100.139,288.022,95.721,288.022z"/>
	<path d="M384.091,288.022c-4.418,0-8,3.582-8,8c0,4.241-3.448,7.691-7.687,7.691c-4.241,0-7.691-3.45-7.691-7.691
		c0-4.239,3.45-7.688,7.691-7.688c4.418,0,8-3.582,8-8c0-4.418-3.582-8-8-8c-13.063,0-23.691,10.626-23.691,23.688
		c0,13.063,10.628,23.691,23.691,23.691c13.061,0,23.687-10.628,23.687-23.691C392.091,291.604,388.509,288.022,384.091,288.022z"/>
</g>
</svg>