<?xml version="1.0" encoding="iso-8859-1"?>
<!-- Uploaded to: SVG Repo, www.svgrepo.com, Generator: SVG Repo Mixer Tools -->
<!DOCTYPE svg PUBLIC "-//W3C//DTD SVG 1.1//EN" "http://www.w3.org/Graphics/SVG/1.1/DTD/svg11.dtd">
<svg fill="#000000" height="800px" width="800px" version="1.1" id="Capa_1" xmlns="http://www.w3.org/2000/svg" xmlns:xlink="http://www.w3.org/1999/xlink" 
	 viewBox="0 0 455.895 455.895" xml:space="preserve">
<g>
	<path d="M95.721,295.787c-4.418,0-8,3.582-8,8c0,4.241-3.448,7.691-7.687,7.691c-4.241,0-7.691-3.45-7.691-7.691
		c0-4.24,3.45-7.689,7.691-7.689c4.418,0,8-3.582,8-8s-3.582-8-8-8c-13.063,0-23.691,10.627-23.691,23.689
		c0,13.063,10.628,23.691,23.691,23.691c13.061,0,23.687-10.628,23.687-23.691C103.721,299.369,100.14,295.787,95.721,295.787z"/>
	<path d="M175.762,295.787c-4.418,0-8,3.582-8,8c0,4.241-3.448,7.691-7.687,7.691c-4.241,0-7.691-3.45-7.691-7.691
		c0-4.24,3.45-7.689,7.691-7.689c4.418,0,8-3.582,8-8s-3.582-8-8-8c-13.063,0-23.691,10.627-23.691,23.689
		c0,13.063,10.628,23.691,23.691,23.691c13.061,0,23.687-10.628,23.687-23.691C183.762,299.369,180.181,295.787,175.762,295.787z"/>
	<path d="M384.091,295.787c-4.418,0-8,3.582-8,8c0,4.241-3.448,7.691-7.687,7.691c-4.241,0-7.691-3.45-7.691-7.691
		c0-4.24,3.45-7.689,7.691-7.689c4.418,0,8-3.582,8-8s-3.582-8-8-8c-13.063,0-23.691,10.627-23.691,23.689
		c0,13.063,10.628,23.691,23.691,23.691c13.061,0,23.687-10.628,23.687-23.691C392.091,299.369,388.509,295.787,384.091,295.787z"/>
	<path d="M455.717,230.383L436.7,141.607c-3.354-16.786-19.367-29.926-36.488-29.926h-55.604c-4.418,0-8,3.582-8,8v80.378h-8.69
		V133.44c0.381-1.699,0.589-3.462,0.589-5.274c0-13.279-10.804-24.083-24.083-24.083H40.011c-13.28,0-24.083,10.804-24.083,24.083
		c0,10.476,6.725,19.406,16.083,22.712v32.848c0,4.418,3.582,8,8,8c4.457,0,8.083,3.626,8.083,8.083s-3.626,8.083-8.083,8.083
		s-8.083-3.626-8.083-8.083c0-4.418-3.582-8-8-8s-8,3.582-8,8c0,13.28,10.804,24.083,24.083,24.083s24.083-10.804,24.083-24.083
		c0-10.477-6.724-19.412-16.083-22.717V152.25H280.34v47.81h-0.103c-13.233,0-24,10.766-24,24v7.5H8c-4.418,0-8,3.582-8,8v56.229
		c0,8.822,7.178,16,16,16h16.691c3.823,22.684,23.592,40.023,47.347,40.023c16.688,0,31.408-8.564,40.016-21.524
		c8.61,12.96,23.333,21.524,40.025,21.524c23.749,0,43.514-17.339,47.336-40.023h113.646c3.823,22.684,23.592,40.023,47.346,40.023
		c23.749,0,43.514-17.339,47.336-40.023h32.151c4.418,0,8-3.582,8-8v-71.729C455.895,231.496,455.835,230.934,455.717,230.383z
		 M437.999,224.059h-52.275c-0.527-0.109-1.074-0.167-1.634-0.167c-4.5,0-8.161-3.661-8.161-8.162v-56.255h48.235L437.999,224.059z
		 M296.34,128.166c0-4.457,3.626-8.083,8.083-8.083c3.719,0,6.852,2.529,7.789,5.955c-0.187,0.678-0.295,1.39-0.295,2.128v3.014
		c-1.198,2.967-4.103,5.069-7.494,5.069C299.966,136.25,296.34,132.623,296.34,128.166z M40.011,120.083
		c4.457,0,8.083,3.626,8.083,8.083s-3.626,8.083-8.083,8.083s-8.083-3.626-8.083-8.083S35.554,120.083,40.011,120.083z
		 M62.695,136.25c0.904-2.528,1.4-5.249,1.4-8.083c0-2.835-0.496-5.555-1.4-8.083H281.74c-0.904,2.528-1.4,5.248-1.4,8.083v8.083
		H62.695z M296.34,152.25h8.083c2.616,0,5.134-0.425,7.494-1.2v49.01H296.34V152.25z M272.237,224.059c0-4.411,3.589-8,8-8h56.37
		v51.784c-8.046,7.125-13.687,16.899-15.547,27.945h-48.823V224.059z M16,247.559h240.237v48.229h-48.822
		c-3.82-22.684-23.586-40.023-47.337-40.023c-16.691,0-31.415,8.563-40.025,21.521c-8.608-12.958-23.328-21.521-40.016-21.521
		c-23.756,0-43.527,17.34-47.348,40.023H16V247.559z M80.038,335.812c-17.659,0-32.026-14.367-32.026-32.026
		c0-17.656,14.367-32.021,32.026-32.021c17.653,0,32.015,14.364,32.015,32.021C112.053,321.444,97.691,335.812,80.038,335.812z
		 M160.079,335.812c-17.659,0-32.026-14.367-32.026-32.026c0-17.656,14.367-32.021,32.026-32.021
		c17.653,0,32.016,14.364,32.016,32.021C192.094,321.444,177.732,335.812,160.079,335.812z M368.407,335.812
		c-17.659,0-32.025-14.367-32.025-32.026c0-17.656,14.366-32.021,32.025-32.021c17.653,0,32.016,14.364,32.016,32.021
		C400.423,321.444,386.061,335.812,368.407,335.812z M415.744,295.788c-3.82-22.684-23.587-40.023-47.337-40.023
		c-5.535,0-10.848,0.952-15.8,2.683V127.681h47.604c8.999,0,18.056,7.109,20.478,15.794h-52.76c-4.418,0-8,3.582-8,8v64.255
		c0,12.655,9.78,23.069,22.179,24.081c0.634,0.162,1.298,0.248,1.982,0.248h55.804v7.917h-7.789c-4.418,0-8,3.582-8,8s3.582,8,8,8
		h7.789v31.813H415.744z"/>
	<path d="M288.34,247.559h31.577c4.418,0,8-3.582,8-8s-3.582-8-8-8H288.34c-4.418,0-8,3.582-8,8S283.922,247.559,288.34,247.559z"/>
</g>
</svg>