<svg width="16" height="16" viewBox="0 0 16 16" fill="none" xmlns="http://www.w3.org/2000/svg">
<path d="M13.5189 2.325C12.0318 0.825 10.0513 0 7.94658 0C3.6023 0 0.0672526 3.55714 0.0672526 7.92857C0.0672526 9.325 0.429276 10.6893 1.11783 11.8929L-0.000183105 16L4.17728 14.8964C5.32724 15.5286 6.62271 15.8607 7.94303 15.8607H7.94658C12.2873 15.8607 15.9004 12.3036 15.9004 7.93214C15.9004 5.81429 15.006 3.825 13.5189 2.325ZM7.94658 14.525C6.76823 14.525 5.61472 14.2071 4.61029 13.6071L4.37249 13.4643L1.89511 14.1179L2.55527 11.6857L2.39911 11.4357C1.7425 10.3857 1.39822 9.175 1.39822 7.92857C1.39822 4.29643 4.337 1.33929 7.95013 1.33929C9.69991 1.33929 11.3432 2.025 12.5783 3.27143C13.8135 4.51786 14.573 6.17143 14.5695 7.93214C14.5695 11.5679 11.5562 14.525 7.94658 14.525ZM11.5384 9.58929C11.3432 9.48929 10.3743 9.01071 10.1933 8.94643C10.0122 8.87857 9.88092 8.84643 9.7496 9.04643C9.61827 9.24643 9.24205 9.68929 9.12493 9.825C9.01135 9.95714 8.89423 9.975 8.69902 9.875C7.54197 9.29286 6.78243 8.83571 6.01934 7.51786C5.81703 7.16786 6.22164 7.19286 6.59787 6.43571C6.66175 6.30357 6.62981 6.18929 6.58012 6.08929C6.53043 5.98929 6.13646 5.01429 5.9732 4.61786C5.81348 4.23214 5.65022 4.28571 5.52954 4.27857C5.41597 4.27143 5.28464 4.27143 5.15332 4.27143C5.022 4.27143 4.80904 4.32143 4.62803 4.51786C4.44702 4.71786 3.93948 5.19643 3.93948 6.17143C3.93948 7.14643 4.64578 8.08929 4.74161 8.22143C4.84099 8.35357 6.12936 10.3536 8.10629 11.2143C9.35563 11.7571 9.84543 11.8036 10.4701 11.7107C10.8499 11.6536 11.6342 11.2321 11.7975 10.7679C11.9608 10.3036 11.9608 9.90714 11.9111 9.825C11.8649 9.73571 11.7336 9.68571 11.5384 9.58929Z" fill="#4c5ba4"/>
</svg>
